<?xml version="1.0" encoding="utf-8"?>
<!-- Svg Vector Icons : http://www.onlinewebfonts.com/icon -->
<!DOCTYPE svg PUBLIC "-//W3C//DTD SVG 1.1//EN" "http://www.w3.org/Graphics/SVG/1.1/DTD/svg11.dtd">
<svg version="1.1" xmlns="http://www.w3.org/2000/svg" xmlns:xlink="http://www.w3.org/1999/xlink" x="0px" y="0px" viewBox="0 0 256 256" enable-background="new 0 0 256 256" xml:space="preserve">
<metadata> Svg Vector Icons : http://www.onlinewebfonts.com/icon </metadata>
<g><g><g><path fill="#000000" d="M196.4,10.5c-15.3,2.2-27.7,11.1-34.2,24.6c-3.5,7.3-4.3,10.6-4.4,19.5l0,7.5l-24.6,24.6l-24.7,24.7l-0.1,15.6c-0.2,17.3,0,18.5,2.4,19.9c1.4,0.9,2.4,0.9,17.3,0.9c12.8,0,16-0.1,17.1-0.6c1.5-0.8,11.3-10.7,12-12.1c0.3-0.6,0.5-2.4,0.5-4v-3h3.5h3.5l5.8-5.7c3.1-3.1,6-6.3,6.4-7.1c0.4-0.8,0.6-2.6,0.6-4.1v-2.5h2.5c1.4,0,3.1-0.2,3.8-0.5c0.7-0.2,3.4-2.6,6-5.2l4.7-4.7l5.7,0.1c12.6,0.4,23.2-3.6,32-12c6.5-6.2,10.7-13.6,12.9-22.4c1.2-4.8,1.1-14.8-0.2-20.1c-4.1-16.5-17.4-29.3-33.8-32.8C206.8,10.3,200,10,196.4,10.5z M209.3,20.9c7.2,1.6,15.2,6.6,19.5,12.4c4.9,6.5,7.2,13.3,7.2,21c0,6.1-0.9,10-3.7,15.7c-1.8,3.6-2.9,5.1-6.1,8.3c-5,5-9.9,7.9-16.6,9.7c-2.5,0.7-10.5,0.8-15.1,0.2l-3.3-0.4l-5.4,5.4l-5.4,5.3H176c-7.6,0-8.8,1.3-8.8,8.8v4.3l-3.4,3.3l-3.3,3.3H156c-7.3,0-8.1,0.8-8.2,7.8v4.8l-3.5,3.5l-3.6,3.6h-11.2h-11.2v-11.4v-11.4l24.5-24.4c14.1-14,24.8-25.1,25.1-25.9c0.5-1.1,0.6-2,0.2-3.5c-1.3-6.2-0.9-12.6,1.2-18.5c3.9-10.9,13-19.2,24.3-22C197.8,20.1,204.9,20,209.3,20.9z"/><path fill="#000000" d="M207.5,30.5c-3,1-4.6,2-6.6,4.2c-2.9,3.1-3.9,5.7-3.9,9.9c0,4.2,1.1,6.8,4.1,10.1c2.9,3.2,5.9,4.4,10.6,4.4c3.1,0,4.1-0.2,6.3-1.3c2.9-1.4,5.3-3.8,6.9-6.9c0.9-1.7,1.1-2.7,1.1-6.4c0-4.9-0.7-6.8-3.7-10.1C218.9,30.8,212.2,29,207.5,30.5z M213.5,40.2c1.6,0.7,3,2.7,3,4.4c0,2.9-3.1,5.3-6,4.8c-3.3-0.7-4.8-5.1-2.7-7.7C209.4,39.6,211,39.2,213.5,40.2z"/><path fill="#000000" d="M149.1,100.3c-19.3,19.3-21.1,21.2-21.1,22.6c0,3.2,1.9,5.1,5.1,5.2h2l20.5-20.4c12.1-12.1,20.7-21,21.2-21.9c1.3-3.2-1.1-6.5-4.7-6.5C170.2,79.2,170,79.3,149.1,100.3z"/><path fill="#000000" d="M12.8,128.9c-0.9,0.4-1.8,1.3-2.2,1.9c-0.5,0.9-0.6,11.2-0.6,46.6c0,44.2,0,45.4,0.9,46.9c1.4,2.4,2.7,2.5,19.7,2.4c17.9-0.2,17.1,0,18.9-5c0.6-1.6,1.1-3.2,1.2-3.5c0.1-0.4,13.2,3.8,40.7,13c22.3,7.5,41.7,13.8,43.2,14.2c3.8,0.8,11.2,0.7,15.7-0.2c10.8-2.4,29.7-9.9,65.7-26.2c29.1-13.2,30-13.6,30-16.6c0-2.3-3-7-6.9-10.9c-6-6-13.8-9.2-22.4-9.2c-3.8,0-6,0.4-21.9,4.4c-9.7,2.4-17.7,4.3-17.7,4.3c0-0.1-0.4-1.5-0.8-3.3c-2.1-9.2-8.5-15.3-19.2-18.7c-1.7-0.5-21.8-5.1-44.7-10.2c-23-5.1-42.2-9.4-42.8-9.5c-1-0.3-1.1-0.4-0.7-3.7c0.5-4.9-0.3-5.9-6.2-8.8c-6.4-3.1-19.6-5.8-35.3-7.2C13.9,128,14.5,128,12.8,128.9z M36.7,140.3c8.7,1.2,14.2,2.4,19.1,3.9l3.1,1l-0.3,2.2c-1.8,12.6-8.6,39.7-16.2,64l-1.6,5.2H30.3H19.7v-39v-39l4.5,0.3C26.6,139,32.3,139.7,36.7,140.3z M110.5,168.2c23,5.1,42.8,9.6,44,10c3.3,1,6.4,2.7,8.3,4.3c2,1.8,3.8,5.4,4.2,8.5l0.3,2.4l-6.2,1.5c-3.6,0.8-7.4,1.5-9.1,1.5c-1.8,0-11.4-1.7-26-4.6c-21.7-4.3-23.1-4.6-24.6-3.9c-3.2,1.3-3.8,6.1-1.1,8.2c0.8,0.6,8.2,2.3,24.2,5.5c30.9,6.2,25.3,6.5,62-2.8c26.8-6.7,28-7,31.4-6.7c1.9,0.1,4.7,0.7,6.2,1.2c4.6,1.7,10.1,5.9,9.1,6.8c-0.2,0.2-11.6,5.5-25.3,11.7c-31.7,14.3-46.9,20.5-57.6,23.1c-4.3,1.1-5.6,1.2-9.9,1.1c-4.2-0.2-5.7-0.5-10.2-2.1c-2.9-1-21.2-7.2-40.8-13.7C70,213.5,54,208.1,53.9,208.1c0,0,1.2-4.7,2.9-10.4c3.2-11.1,6.9-25.6,8.5-32.7c0.5-2.4,1.1-4.9,1.2-5.4c0.2-0.9,0.5-1.1,1.2-0.8C68.3,158.8,87.5,163,110.5,168.2z"/></g></g></g>
</svg>